<svg width="32" height="32" viewBox="0 0 32 32" fill="none" xmlns="http://www.w3.org/2000/svg">
<path d="M28 29.3499C27.65 29.3499 27.3 29.1999 27.05 28.9499L19.85 21.7499C18.05 23.1499 15.75 23.9999 13.3 23.9999C7.39999 23.9999 2.64999 19.1999 2.64999 13.3499C2.64999 7.4999 7.44999 2.6499 13.35 2.6499C19.25 2.6499 24 7.4499 24 13.2999C24 19.1499 23.15 18.0499 21.75 19.8499L28.95 27.0499C29.45 27.5499 29.45 28.3999 28.95 28.9499C28.7 29.1999 28.35 29.3499 28 29.3499ZM13.35 5.3499C8.94999 5.3499 5.34999 8.9499 5.34999 13.3499C5.34999 17.7499 8.94999 21.3499 13.35 21.3499C17.75 21.3499 21.35 17.7499 21.35 13.3499C21.35 8.9499 17.75 5.3499 13.35 5.3499Z" fill="white"/>
</svg>
